# xmcd
#
# Track frame offsets:
#	150
#	25853
#	45496
#	62976
#	73245
#	92650
#	113728
#	131029
#	150503
#	164913
#	184553
#	202573
#
# Disc length: 2927 seconds
#
# Revision: 0
# Processed by: cddbd v1.5.2PL0 Copyright (c) Steve Scherf et al.
# Submitted via: dBpowerAMP V4.0
#
DISCID=9f0b6d0c
DTITLE=Willie Nelson - Covered By Willie
DYEAR=2005
DGENRE=Country
TTITLE0=Me and Bobby McGee
TTITLE1=Georgia on my Mind
TTITLE2=Unchained Melody
TTITLE3=What A Wonderful World
TTITLE4=I Can See Clearly Now
TTITLE5=Bridge Over Troubled Water
TTITLE6=Take It To the Limit
TTITLE7=Please Come to Boston
TTITLE8=Heart of Gold
TTITLE9=American Tune
TTITLE10=Help me Make it Throught the Night
TTITLE11=Wind Beneath My Wings
EXTD=
EXTT0=
EXTT1=
EXTT2=
EXTT3=
EXTT4=
EXTT5=
EXTT6=
EXTT7=
EXTT8=
EXTT9=
EXTT10=
EXTT11=
PLAYORDER=
